<?xml version="1.0" encoding="UTF-8" standalone="no"?>
<!-- Created with Inkscape (http://www.inkscape.org/) -->

<svg
   xmlns:dc="http://purl.org/dc/elements/1.1/"
   xmlns:cc="http://creativecommons.org/ns#"
   xmlns:rdf="http://www.w3.org/1999/02/22-rdf-syntax-ns#"
   xmlns:svg="http://www.w3.org/2000/svg"
   xmlns="http://www.w3.org/2000/svg"
   xmlns:xlink="http://www.w3.org/1999/xlink"
   xmlns:sodipodi="http://sodipodi.sourceforge.net/DTD/sodipodi-0.dtd"
   xmlns:inkscape="http://www.inkscape.org/namespaces/inkscape"
   width="245.23427"
   height="336.5"
   id="svg2"
   version="1.1"
   inkscape:version="0.48.4 r9939"
   inkscape:export-filename="/home/maddoc/android/TripWeather/app/src/main/res/drawable-xxhdpi/ic_location_colored.png"
   inkscape:export-xdpi="26.008287"
   inkscape:export-ydpi="26.008287"
   sodipodi:docname="ic_location_colored.svg">
  <defs
     id="defs4">
    <linearGradient
       id="linearGradient7777">
      <stop
         style="stop-color:#00d216;stop-opacity:1;"
         offset="0"
         id="stop7779" />
      <stop
         style="stop-color:#009f10;stop-opacity:1;"
         offset="1"
         id="stop7781" />
    </linearGradient>
    <linearGradient
       inkscape:collect="always"
       xlink:href="#linearGradient7777"
       id="linearGradient7783"
       x1="250"
       y1="642.36218"
       x2="250"
       y2="972.36218"
       gradientUnits="userSpaceOnUse" />
  </defs>
  <sodipodi:namedview
     id="base"
     pagecolor="#ffffff"
     bordercolor="#666666"
     borderopacity="1.0"
     inkscape:pageopacity="0.0"
     inkscape:pageshadow="2"
     inkscape:zoom="0.35"
     inkscape:cx="-401.27212"
     inkscape:cy="217.7641"
     inkscape:document-units="px"
     inkscape:current-layer="layer1"
     showgrid="true"
     inkscape:snap-bbox="true"
     fit-margin-top="0"
     fit-margin-left="0"
     fit-margin-right="0"
     fit-margin-bottom="0"
     inkscape:window-width="1916"
     inkscape:window-height="1143"
     inkscape:window-x="1680"
     inkscape:window-y="36"
     inkscape:window-maximized="0">
    <inkscape:grid
       type="xygrid"
       id="grid2985"
       empspacing="5"
       visible="true"
       enabled="true"
       snapvisiblegridlinesonly="true"
       spacingx="10px"
       spacingy="10px"
       originx="-127.75764px"
       originy="-76.48718px" />
  </sodipodi:namedview>
  <metadata
     id="metadata7">
    <rdf:RDF>
      <cc:Work
         rdf:about="">
        <dc:format>image/svg+xml</dc:format>
        <dc:type
           rdf:resource="http://purl.org/dc/dcmitype/StillImage" />
        <dc:title></dc:title>
      </cc:Work>
    </rdf:RDF>
  </metadata>
  <g
     inkscape:label="Layer 1"
     inkscape:groupmode="layer"
     id="layer1"
     transform="translate(-127.75764,-639.375)">
    <rect
       style="fill:#666666;fill-opacity:1;fill-rule:nonzero;stroke:#22dc00;stroke-width:3;stroke-linecap:round;stroke-linejoin:round;stroke-miterlimit:4;stroke-opacity:1;stroke-dasharray:none;stroke-dashoffset:0"
       id="rect8675"
       width="1150"
       height="850"
       x="-290"
       y="-437.63782" />
    <path
       style="fill:url(#linearGradient7783);fill-opacity:1;stroke:#0d5300;stroke-width:6;stroke-miterlimit:4;stroke-opacity:1;stroke-dasharray:none"
       d="m 250.38476,642.36218 c -100,0 -150,100 -100,200 50,100 100,130 100,130 0,0 50,-30 100,-130 50,-100 0,-200 -100,-200 z m 0,51.3125 c 32.41232,0 58.6875,26.27518 58.6875,58.6875 0,32.41232 -26.27518,58.6875 -58.6875,58.6875 -32.41232,0 -58.6875,-26.27518 -58.6875,-58.6875 0,-32.41232 26.27518,-58.6875 58.6875,-58.6875 z"
       id="path2987"
       inkscape:connector-curvature="0"
       sodipodi:nodetypes="zscszsssss" />
    <g
       transform="translate(-250,-1460)"
       id="layer1-5"
       inkscape:label="Layer 1">
      <path
         inkscape:connector-curvature="0"
         id="path2987-7"
         d="m 319.61524,1312.3622 c -100,0 -150,100 -100,200 50,100 100,130 100,130 0,0 50,-30 100,-130 50,-100 0,-200 -100,-200 z m -4.3125,30 9.40625,0 0,11.5937 c 34.1192,2.3173 61.40147,29.5683 63.71875,63.6875 l 11.5625,0 0,9.4375 -11.5625,0 c -2.31728,34.1192 -29.59955,61.3702 -63.71875,63.6875 l 0,11.5938 -9.40625,0 0,-11.5938 c -34.11704,-2.3173 -61.37238,-29.5683 -63.6875,-63.6875 l -11.625,0 0,-9.4375 11.625,0 c 2.31512,-34.1192 29.57046,-61.3702 63.6875,-63.6875 l 0,-11.5937 z m 0,28.4375 c -24.835,2.2371 -44.63786,22.0087 -46.875,46.8437 l 28.03125,0 0,9.4375 -28.03125,0 c 2.23714,24.835 22.04,44.6066 46.875,46.8438 l 0,-28.0313 9.40625,0 0,28.0313 c 24.835,-2.2372 44.60661,-22.0088 46.84375,-46.8438 l -28.03125,0 0,-9.4375 28.03125,0 c -2.23714,-24.835 -22.00875,-44.6066 -46.84375,-46.8437 l 0,28.0312 -9.40625,0 0,-28.0312 z"
         style="fill:#ffffff;fill-opacity:1;stroke:none" />
    </g>
  </g>
</svg>
